<?xml version="1.0" encoding="utf-8"?>
<!-- Generator: Adobe Illustrator 22.0.1, SVG Export Plug-In . SVG Version: 6.00 Build 0)  -->
<svg version="1.1" id="Layer_1" xmlns="http://www.w3.org/2000/svg" xmlns:xlink="http://www.w3.org/1999/xlink" x="0px" y="0px"
	 viewBox="0 0 510.2 680.3" style="enable-background:new 0 0 510.2 680.3;" xml:space="preserve">
<style type="text/css">
	.st0{fill:#029BAB;}
</style>
<rect x="14.6" y="327.4" class="st0" width="26.9" height="42.9"/>
<rect x="53.5" y="299" class="st0" width="27" height="71"/>
<rect x="91.8" y="269.9" class="st0" width="26.9" height="100.4"/>
<rect x="130.3" y="242.7" class="st0" width="26.9" height="127.6"/>
<rect x="171.3" y="214.2" class="st0" width="26.9" height="156.1"/>
<g>
	<g>
		<path class="st0" d="M228.2,301.7c3.5,14.2,11.7,24.2,30.6,24.2c18.8,0,26.1-9.3,26.1-20.6c0-11.9-5.3-19.3-30-24.6
			c-28.8-6.2-35.7-17.7-35.7-34.2c0-21.4,16-33.6,36.9-33.6c31.2,0,38.5,20.7,39.6,32.9h-13.7c-1.9-8.3-6-19.2-26.2-19.2
			c-13.8,0-22.7,6-22.7,18.1c0,9.9,3.9,16.2,25.7,20.8c34.6,7.4,40.2,21.1,40.2,37.9c0,19.3-12.2,35.9-41,35.9
			c-26.8,0-40.3-15.5-43.4-37.8H228.2z"/>
		<path class="st0" d="M320.5,301.7c3.5,14.2,11.7,24.2,30.6,24.2c18.8,0,26.1-9.3,26.1-20.6c0-11.9-5.3-19.3-30-24.6
			c-28.8-6.2-35.7-17.7-35.7-34.2c0-21.4,16-33.6,36.9-33.6c31.2,0,38.5,20.7,39.6,32.9h-13.7c-1.9-8.3-6-19.2-26.2-19.2
			c-13.8,0-22.7,6-22.7,18.1c0,9.9,3.9,16.2,25.7,20.8c34.6,7.4,40.2,21.1,40.2,37.9c0,19.3-12.2,35.9-41,35.9
			c-26.8,0-40.3-15.5-43.4-37.8H320.5z"/>
		<path class="st0" d="M406.8,215.5h39.4c31,0,49,25.6,49,58.8c0,38.9-21.6,62.7-49.3,62.7h-39.1V215.5z M420.4,322.8h22.9
			c25.4,0,37.6-20.2,37.6-48c0-28.1-14.3-45-36.6-45.1h-23.9V322.8z"/>
	</g>
</g>
<g>
	<g>
		<path class="st0" d="M219.6,365.4c0.3,2.2,1.8,3.3,3.8,3.3c2,0,3.4-1.1,3.4-3c0-1.9-0.9-2.7-3.9-3.7c-3.6-1.1-4.9-2.3-4.9-4.8
			c0-2.7,2-4.5,5.2-4.5c3.7,0,5.2,2.2,5.4,4.6h-2.1c-0.3-1.8-1.3-2.9-3.4-2.9c-2,0-3,1-3,2.6c0,1.6,0.9,2.3,3.6,3.1
			c4.2,1.3,5.2,2.9,5.2,5.3c0,2.9-2,5-5.7,5c-3.5,0-5.6-1.9-5.8-5.1H219.6z"/>
		<path class="st0" d="M232.4,357.6h2v-3.7h2v3.7h2.5v1.7h-2.5v7.9c0,1.1,0.3,1.5,1.3,1.5c0.3,0,0.7,0,1-0.1v1.6
			c-0.5,0.2-1.2,0.2-1.6,0.2c-1.8,0-2.7-0.7-2.7-2.8v-8.3h-2V357.6z"/>
		<path class="st0" d="M244.7,364.4c0,2.5,1,4.5,3.2,4.5c2,0,2.6-1.4,2.9-2.1h2c-0.4,1.6-1.6,3.8-5,3.8c-3.9,0-5.2-3.1-5.2-6.6
			c0-3.1,1.5-6.5,5.3-6.5c3.9,0,5,3.1,5,6c0,0.1,0,0.9,0,1H244.7z M251,362.8c-0.1-2.2-0.9-3.8-3.1-3.8c-2.5,0-3.1,2.3-3.2,3.8H251z
			"/>
		<path class="st0" d="M258,361.6c0-2.6,0-3.4,0-4h2c0,0.2,0.1,1.5,0.1,2c0.5-1.1,1.6-2.2,3.7-2.2c2.3,0,4,1.3,4,4.7v8.2h-2.1v-7.9
			c0-1.8-0.6-3.3-2.5-3.3c-2.2,0-3.1,1.7-3.1,4.3v6.8h-2V361.6z"/>
		<path class="st0" d="M283.3,352.1V367c0,1.2,0,2.5,0,3.3h-2c0-0.3-0.1-1.1-0.1-1.9c-0.7,1.5-1.7,2.1-3.7,2.1
			c-3.2,0-4.8-2.8-4.8-6.5c0-3.7,1.9-6.6,5.2-6.6c2,0,3,0.8,3.3,1.5v-6.8H283.3z M274.9,363.9c0,3.1,1.3,4.9,3.3,4.9
			c2.7,0,3.2-2.1,3.2-5c0-3.5-1-4.5-3.1-4.5C276.2,359.2,274.9,360.9,274.9,363.9z"/>
		<path class="st0" d="M290.5,364.4c0,2.5,1,4.5,3.2,4.5c2,0,2.6-1.4,2.9-2.1h2c-0.4,1.6-1.6,3.8-5,3.8c-3.9,0-5.2-3.1-5.2-6.6
			c0-3.1,1.5-6.5,5.3-6.5c3.9,0,5,3.1,5,6c0,0.1,0,0.9,0,1H290.5z M296.8,362.8c-0.1-2.2-0.9-3.8-3.1-3.8c-2.5,0-3.1,2.3-3.2,3.8
			H296.8z"/>
		<path class="st0" d="M303.9,361.6c0-2.6,0-3.4,0-4h2c0,0.2,0.1,1.5,0.1,2c0.5-1.1,1.6-2.2,3.7-2.2c2.3,0,4,1.3,4,4.7v8.2h-2.1
			v-7.9c0-1.8-0.6-3.3-2.5-3.3c-2.2,0-3.1,1.7-3.1,4.3v6.8h-2V361.6z"/>
		<path class="st0" d="M329.1,365.4c0.3,2.2,1.8,3.3,3.8,3.3c2,0,3.4-1.1,3.4-3c0-1.9-0.9-2.7-3.9-3.7c-3.6-1.1-4.9-2.3-4.9-4.8
			c0-2.7,2-4.5,5.2-4.5c3.7,0,5.2,2.2,5.4,4.6H336c-0.3-1.8-1.3-2.9-3.4-2.9c-2,0-3,1-3,2.6c0,1.6,0.9,2.3,3.6,3.1
			c4.2,1.3,5.2,2.9,5.2,5.3c0,2.9-2,5-5.7,5c-3.5,0-5.6-1.9-5.8-5.1H329.1z"/>
		<path class="st0" d="M353.1,366.7c0,1.6,0,3,0,3.6h-2c-0.1-0.4-0.1-1.1-0.1-2c-0.6,1.4-1.8,2.2-3.7,2.2c-2,0-3.8-1-3.8-4.4v-8.5h2
			v8.1c0,1.6,0.5,3,2.4,3c1.8,0,3-1.2,3-4v-7.1h2.1V366.7z"/>
		<path class="st0" d="M361.1,368.8v6.5h-2v-14c0-1.7,0-2.9,0-3.7h2c0,0.4,0.1,1.3,0.1,2c0.6-1.3,1.8-2.3,3.9-2.3
			c2.7,0,4.7,2.2,4.7,6.4c0,4.3-2.2,6.8-5.2,6.8C362.6,370.5,361.6,369.8,361.1,368.8z M367.5,363.8c0-3-1.2-4.7-3.2-4.7
			c-2.6,0-3.3,1.8-3.3,4.8c0,2.8,0.5,4.7,3.2,4.7C366.3,368.7,367.5,367,367.5,363.8z"/>
		<path class="st0" d="M376.7,368.8v6.5h-2v-14c0-1.7,0-2.9,0-3.7h2c0,0.4,0.1,1.3,0.1,2c0.6-1.3,1.8-2.3,3.9-2.3
			c2.7,0,4.7,2.2,4.7,6.4c0,4.3-2.2,6.8-5.2,6.8C378.3,370.5,377.3,369.8,376.7,368.8z M383.2,363.8c0-3-1.2-4.7-3.2-4.7
			c-2.6,0-3.3,1.8-3.3,4.8c0,2.8,0.5,4.7,3.2,4.7C381.9,368.7,383.2,367,383.2,363.8z"/>
		<path class="st0" d="M400.5,363.7c0,3.7-1.6,6.8-5.6,6.8c-3.9,0-5.4-3.2-5.4-6.7c0-3.3,1.8-6.4,5.6-6.4
			C398.6,357.4,400.5,360.1,400.5,363.7z M391.6,363.8c0,2.9,1.2,5,3.4,5c2.3,0,3.3-2,3.3-5c0-2.8-1.1-4.7-3.4-4.7
			C392.8,359.1,391.6,361,391.6,363.8z"/>
		<path class="st0" d="M405.6,361.9c0-2,0-3.7,0-4.3h2c0,0.6,0.1,1.4,0.1,2.6c0.6-1.6,2-2.8,4-2.8v2.2c-2.8,0.1-4,1.8-4,4.5v6.2h-2
			V361.9z"/>
		<path class="st0" d="M414.3,357.6h2v-3.7h2v3.7h2.5v1.7h-2.5v7.9c0,1.1,0.3,1.5,1.3,1.5c0.3,0,0.7,0,1-0.1v1.6
			c-0.5,0.2-1.2,0.2-1.6,0.2c-1.8,0-2.7-0.7-2.7-2.8v-8.3h-2V357.6z"/>
		<path class="st0" d="M434,353h5.5c4.3,0,7.6,2.8,7.6,8.2c0,5.6-2.9,9-7.9,9H434V353z M436.1,368.5h3.1c3.9,0,5.8-2.7,5.8-7.2
			c0-4.2-2.3-6.5-5.7-6.5h-3.1V368.5z"/>
		<path class="st0" d="M453.6,364.4c0,2.5,1,4.5,3.2,4.5c2,0,2.6-1.4,2.9-2.1h2c-0.4,1.6-1.6,3.8-5,3.8c-3.9,0-5.2-3.1-5.2-6.6
			c0-3.1,1.5-6.5,5.3-6.5c3.9,0,5,3.1,5,6c0,0.1,0,0.9,0,1H453.6z M459.9,362.8c-0.1-2.2-0.9-3.8-3.1-3.8c-2.5,0-3.1,2.3-3.2,3.8
			H459.9z"/>
		<path class="st0" d="M467.9,366.6c0.2,1.5,1.3,2.3,2.8,2.3c1.7,0,2.4-0.9,2.4-2c0-1.1-0.8-1.7-2.9-2.3c-3-0.8-3.8-2-3.8-3.7
			c0-1.7,1.1-3.5,4.2-3.5c3,0,4.2,1.7,4.3,3.6h-2c-0.2-1-0.7-2-2.4-2c-1.4,0-2.1,0.7-2.1,1.7c0,0.9,0.5,1.5,2.6,2
			c3.2,0.9,4.2,2,4.2,4c0,2.4-1.8,3.8-4.5,3.8c-2.6,0-4.5-1.2-4.8-3.9H467.9z"/>
		<path class="st0" d="M482.2,363.5c1.1-1.3,3.7-4.1,5.1-5.9h2.4c-1.4,1.6-2.9,3.2-4.4,4.8c1.5,2.4,3.3,5.4,4.8,7.8h-2.4
			c-1-1.7-2.7-4.6-3.8-6.4c-0.3,0.4-1.4,1.5-1.8,1.8v4.6h-2v-18.2h2V363.5z"/>
	</g>
</g>
</svg>
